# xmcd
#
# Track frame offsets: 
#        150
#        17808
#        36002
#        56188
#        74731
#        88399
#        101627
#        118420
#        131857
#        150056
#        176225
#        208608
#
# Disc length: 3402 seconds
#
# Revision: 3
# Processed by: cddbd v1.5.2PL0 Copyright (c) Steve Scherf et al.
# Submitted via: ExactAudioCopy v0.99pb4
#
DISCID=b50d480c
DTITLE=Ані Лорак - Розкажи
DYEAR=2006
DGENRE=Pop
TTITLE0=Мій Герой
TTITLE1=Розкажи...
TTITLE2=Не Кажи Про Любов
TTITLE3=Авто
TTITLE4=Посмішка
TTITLE5=Чекаю
TTITLE6=Милий
TTITLE7=Мой Ангел
TTITLE8=Расскажи...
TTITLE9=Авто [rmx]
TTITLE10=Розкажи... [rmx]
TTITLE11=Video
EXTD=
EXTT0=
EXTT1=
EXTT2=
EXTT3=
EXTT4=
EXTT5=
EXTT6=
EXTT7=
EXTT8=
EXTT9=
EXTT10=
EXTT11=
PLAYORDER=
